# xmcd
#
# Track frame offsets:
#	151
#	18493
#	40456
#	61142
#	91783
#	110435
#	135830
#	163628
#	185161
#	207406
#	228185
#	249376
#	276199
#	302033
#	322132
#
# Disc length: 4348 seconds
#
# Revision: 0
# Processed by: cddbd v1.5PL3 Copyright (c) Steve Scherf et al.
# Submitted via: dBpowerAMP V4.0
#
DISCID=cc10fa0f
DTITLE=Treated n Released - Caught In The Act
DYEAR=1900
DGENRE=
TTITLE0=Intro Ole Harve At WVPE
TTITLE1=Give It Up
TTITLE2=Shakey Ground
TTITLE3=Start To Walkin
TTITLE4=Stormy Monday
TTITLE5=I'm Tore Down
TTITLE6=Red House
TTITLE7=Crossroads
TTITLE8=Since I Met You Baby
TTITLE9=Leroy Boogie
TTITLE10=Born Under A Bad Sign
TTITLE11=Screwed Again
TTITLE12=I Ain't Drunk
TTITLE13=Gloria
TTITLE14=Break Tune
EXTD=
EXTT0=
EXTT1=
EXTT2=
EXTT3=
EXTT4=
EXTT5=
EXTT6=
EXTT7=
EXTT8=
EXTT9=
EXTT10=
EXTT11=
EXTT12=
EXTT13=
EXTT14=
PLAYORDER=
